<svg width="200" height="62" viewBox="0 0 200 62" fill="none" xmlns="http://www.w3.org/2000/svg">
<path d="M192.268 2.15878C195.802 2.15878 198.672 5.02826 198.672 8.56197V53.929C198.672 57.4627 195.802 60.3321 192.268 60.3321H7.73165C4.19794 60.3321 1.32846 57.4627 1.32846 53.929V8.56197C1.32846 5.02826 4.19794 2.15878 7.73165 2.15878H192.268ZM192.268 0.830322H7.73165C3.46729 0.830322 0 4.29761 0 8.56197V53.929C0 58.1933 3.46729 61.6606 7.73165 61.6606H192.268C196.533 61.6606 200 58.1933 200 53.929V8.56197C200 4.29761 196.546 0.830322 192.268 0.830322Z" fill="white"/>
<path d="M21.0563 25.6859C17.8148 31.3186 19.874 39.8606 23.4608 45.0416C25.2542 47.6321 27.0609 49.9569 29.5452 49.9569C29.5983 49.9569 29.6382 49.9569 29.6913 49.9569C30.8603 49.9171 31.6973 49.5451 32.5209 49.1997C33.4376 48.8145 34.3808 48.4026 35.8687 48.4026C37.2768 48.4026 38.1802 48.7879 39.057 49.1731C39.9205 49.5451 40.7972 49.9304 42.1124 49.9038C44.9155 49.8507 46.6292 47.3399 48.1436 45.1346C49.7245 42.8231 50.5216 40.578 50.7873 39.7278L50.8006 39.6879C50.8537 39.5418 50.774 39.3691 50.6279 39.3027C50.6279 39.3027 50.6146 39.2894 50.6013 39.2894C50.1098 39.0901 45.7923 37.1771 45.7391 31.943C45.6993 27.6919 48.9806 25.4468 49.6448 25.0483L49.6714 25.035C49.7378 24.9951 49.7909 24.9154 49.8042 24.8357C49.8175 24.756 49.8042 24.663 49.7511 24.5966C47.4794 21.2754 44.0121 20.7839 42.6172 20.7175C42.418 20.6909 42.2054 20.6909 41.9929 20.6909C40.3456 20.6909 38.778 21.3153 37.5159 21.8068C36.6392 22.1522 35.8952 22.4445 35.3638 22.4445C34.7793 22.4445 34.0221 22.1389 33.1453 21.7935C31.9763 21.3286 30.6345 20.7972 29.2263 20.7972C29.1865 20.7972 29.1599 20.7972 29.1333 20.7972C25.8653 20.837 22.77 22.7102 21.0563 25.6859Z" fill="white"/>
<path d="M42.6173 11.5777C40.6379 11.6574 38.2599 12.8796 36.8385 14.5401C35.6296 15.935 34.4473 18.2731 34.7661 20.6245C34.7794 20.7706 34.9122 20.8902 35.0583 20.9035C35.1912 20.9168 35.324 20.9168 35.4702 20.9168C37.4097 20.9168 39.4954 19.8407 40.9302 18.1137C42.4313 16.2937 43.1885 13.9423 42.9627 11.8566C42.9228 11.6839 42.79 11.5644 42.6173 11.5777Z" fill="white"/>
<path d="M65.4399 12.7866H69.1995C70.1826 12.7866 71.0593 12.9859 71.8298 13.3977C72.6004 13.8095 73.1849 14.3675 73.61 15.0849C74.0351 15.8022 74.2476 16.6259 74.2476 17.5292C74.2476 18.4459 74.0351 19.2562 73.61 19.9736C73.1849 20.691 72.5871 21.2622 71.8298 21.6608C71.0593 22.0726 70.1826 22.2718 69.1995 22.2718H65.4399V12.7866ZM69.1464 21.6608C70.0231 21.6608 70.7936 21.488 71.4712 21.1426C72.1354 20.7972 72.6535 20.3057 73.0255 19.6813C73.3841 19.057 73.5701 18.3396 73.5701 17.5425C73.5701 16.7322 73.3841 16.0281 73.0255 15.4037C72.6668 14.7793 72.1487 14.2878 71.4712 13.9424C70.8069 13.597 70.0231 13.4243 69.1464 13.4243H66.1307V21.674H69.1464V21.6608Z" fill="white"/>
<path d="M77.396 21.8866C76.8514 21.5811 76.4396 21.156 76.1207 20.598C75.8152 20.0534 75.6558 19.429 75.6558 18.7382C75.6558 18.0474 75.8152 17.4363 76.1207 16.8783C76.4263 16.3337 76.8514 15.9085 77.396 15.5897C77.9407 15.2842 78.5385 15.1248 79.2028 15.1248C79.867 15.1248 80.4781 15.2842 81.0095 15.5897C81.5541 15.8953 81.966 16.3204 82.2848 16.8783C82.5903 17.423 82.7498 18.0474 82.7498 18.7382C82.7498 19.429 82.5903 20.0401 82.2848 20.598C81.9792 21.1427 81.5541 21.5678 81.0095 21.8866C80.4648 22.1922 79.867 22.3516 79.2028 22.3516C78.5385 22.3383 77.9407 22.1922 77.396 21.8866ZM80.6641 21.3552C81.0892 21.1028 81.4346 20.7442 81.687 20.2925C81.9394 19.8408 82.059 19.3227 82.059 18.7382C82.059 18.1537 81.9394 17.6488 81.687 17.1839C81.4346 16.7322 81.1025 16.3735 80.6641 16.1211C80.239 15.8687 79.7474 15.7358 79.2028 15.7358C78.6581 15.7358 78.1666 15.8687 77.7414 16.1211C77.3163 16.3735 76.9709 16.7322 76.7185 17.1839C76.4661 17.6355 76.3466 18.1537 76.3466 18.7382C76.3466 19.3227 76.4661 19.8275 76.7185 20.2925C76.9709 20.7442 77.3031 21.1028 77.7414 21.3552C78.1666 21.6077 78.6581 21.7405 79.2028 21.7405C79.7474 21.7272 80.239 21.6077 80.6641 21.3552Z" fill="white"/>
<path d="M94.7856 15.2043L92.1021 22.2983H91.4645L89.0732 16.1476L86.6687 22.2983H86.0443L83.3608 15.2043H84.0118L86.3765 21.5278L88.7943 15.2043H89.3788L91.7833 21.5145L94.1745 15.2043H94.7856Z" fill="white"/>
<path d="M101.933 15.9218C102.451 16.4399 102.703 17.1839 102.703 18.1536V22.2985H102.026V18.2068C102.026 17.4097 101.827 16.7986 101.428 16.3868C101.03 15.975 100.458 15.7624 99.7409 15.7624C98.904 15.7624 98.253 16.0148 97.7748 16.5064C97.2965 16.9979 97.0574 17.6754 97.0574 18.5123V22.2852H96.3799V15.1912H97.0308V16.7189C97.27 16.2274 97.6419 15.8288 98.1202 15.5499C98.5984 15.2709 99.1829 15.1248 99.8339 15.1248C100.711 15.1513 101.415 15.4037 101.933 15.9218Z" fill="white"/>
<path d="M105.493 12.2153H106.171V22.2851H105.493V12.2153Z" fill="white"/>
<path d="M109.997 21.8866C109.452 21.5811 109.04 21.156 108.721 20.598C108.416 20.0534 108.256 19.429 108.256 18.7382C108.256 18.0474 108.416 17.4363 108.721 16.8783C109.027 16.3337 109.452 15.9085 109.997 15.5897C110.541 15.2842 111.139 15.1248 111.803 15.1248C112.468 15.1248 113.079 15.2842 113.61 15.5897C114.155 15.8953 114.567 16.3204 114.885 16.8783C115.191 17.423 115.35 18.0474 115.35 18.7382C115.35 19.429 115.191 20.0401 114.885 20.598C114.58 21.1427 114.155 21.5678 113.61 21.8866C113.065 22.1922 112.468 22.3516 111.803 22.3516C111.139 22.3383 110.541 22.1922 109.997 21.8866ZM113.265 21.3552C113.69 21.1028 114.035 20.7442 114.288 20.2925C114.54 19.8408 114.66 19.3227 114.66 18.7382C114.66 18.1537 114.54 17.6488 114.288 17.1839C114.035 16.7322 113.703 16.3735 113.265 16.1211C112.84 15.8687 112.348 15.7358 111.803 15.7358C111.259 15.7358 110.767 15.8687 110.342 16.1211C109.917 16.3735 109.572 16.7322 109.319 17.1839C109.067 17.6355 108.947 18.1537 108.947 18.7382C108.947 19.3227 109.067 19.8275 109.319 20.2925C109.572 20.7442 109.904 21.1028 110.342 21.3552C110.767 21.6077 111.259 21.7405 111.803 21.7405C112.348 21.7272 112.84 21.6077 113.265 21.3552Z" fill="white"/>
<path d="M121.846 15.8155C122.311 16.2671 122.55 16.9181 122.55 17.7949V22.2851H121.899V21.023C121.674 21.4349 121.341 21.767 120.903 21.9928C120.465 22.2186 119.947 22.3382 119.335 22.3382C118.552 22.3382 117.927 22.1522 117.462 21.7803C117.011 21.4083 116.771 20.9167 116.771 20.3189C116.771 19.7344 116.984 19.2562 117.409 18.8842C117.834 18.5122 118.498 18.3395 119.428 18.3395H121.859V17.7683C121.859 17.1041 121.687 16.5992 121.328 16.2671C120.969 15.9217 120.451 15.749 119.761 15.749C119.296 15.749 118.844 15.8287 118.405 15.9882C117.98 16.1476 117.608 16.3734 117.316 16.6391L116.971 16.1476C117.329 15.8287 117.755 15.5896 118.246 15.4036C118.738 15.2309 119.269 15.1379 119.814 15.1379C120.704 15.1512 121.368 15.3771 121.846 15.8155ZM120.943 21.3817C121.355 21.116 121.66 20.7175 121.873 20.1994V18.8709H119.455C118.764 18.8709 118.259 19.0038 117.941 19.2562C117.622 19.5086 117.476 19.854 117.476 20.3057C117.476 20.7706 117.648 21.1293 117.994 21.395C118.339 21.6607 118.817 21.7935 119.442 21.7935C120.026 21.7935 120.531 21.6474 120.943 21.3817Z" fill="white"/>
<path d="M131.664 12.2153V22.2851H130.999V20.6245C130.721 21.1825 130.322 21.6076 129.817 21.8998C129.312 22.1921 128.741 22.3515 128.09 22.3515C127.426 22.3515 126.828 22.1921 126.297 21.8865C125.765 21.581 125.34 21.1559 125.035 20.6112C124.729 20.0665 124.583 19.4422 124.583 18.7514C124.583 18.0606 124.729 17.4362 125.035 16.8782C125.34 16.3336 125.752 15.9085 126.297 15.6029C126.828 15.2974 127.426 15.1512 128.09 15.1512C128.728 15.1512 129.286 15.2974 129.791 15.6029C130.295 15.8952 130.694 16.3203 130.973 16.8517V12.2153H131.664ZM129.591 21.3552C130.016 21.1027 130.362 20.7441 130.614 20.2924C130.867 19.8407 130.986 19.3226 130.986 18.7381C130.986 18.1536 130.867 17.6487 130.614 17.1838C130.362 16.7321 130.03 16.3734 129.591 16.121C129.166 15.8686 128.675 15.7358 128.13 15.7358C127.585 15.7358 127.094 15.8686 126.669 16.121C126.244 16.3734 125.898 16.7321 125.646 17.1838C125.393 17.6355 125.274 18.1536 125.274 18.7381C125.274 19.3226 125.393 19.8274 125.646 20.2924C125.898 20.7441 126.23 21.1027 126.669 21.3552C127.094 21.6076 127.585 21.7404 128.13 21.7404C128.675 21.7271 129.166 21.6076 129.591 21.3552Z" fill="white"/>
<path d="M138.97 21.8866C138.426 21.5811 138.014 21.156 137.695 20.598C137.389 20.0534 137.23 19.429 137.23 18.7382C137.23 18.0474 137.389 17.4363 137.695 16.8783C138 16.3337 138.426 15.9085 138.97 15.5897C139.515 15.2842 140.113 15.1248 140.777 15.1248C141.441 15.1248 142.052 15.2842 142.584 15.5897C143.128 15.8953 143.54 16.3204 143.859 16.8783C144.165 17.423 144.324 18.0474 144.324 18.7382C144.324 19.429 144.165 20.0401 143.859 20.598C143.553 21.1427 143.128 21.5678 142.584 21.8866C142.039 22.1922 141.441 22.3516 140.777 22.3516C140.113 22.3383 139.515 22.1922 138.97 21.8866ZM142.252 21.3552C142.677 21.1028 143.022 20.7442 143.274 20.2925C143.527 19.8408 143.646 19.3227 143.646 18.7382C143.646 18.1537 143.527 17.6488 143.274 17.1839C143.022 16.7322 142.69 16.3735 142.252 16.1211C141.826 15.8687 141.335 15.7358 140.79 15.7358C140.246 15.7358 139.754 15.8687 139.329 16.1211C138.904 16.3735 138.558 16.7322 138.306 17.1839C138.054 17.6355 137.934 18.1537 137.934 18.7382C137.934 19.3227 138.054 19.8275 138.306 20.2925C138.558 20.7442 138.891 21.1028 139.329 21.3552C139.754 21.6077 140.246 21.7405 140.79 21.7405C141.335 21.7272 141.813 21.6077 142.252 21.3552Z" fill="white"/>
<path d="M152.003 15.9218C152.521 16.4399 152.773 17.1839 152.773 18.1536V22.2985H152.096V18.2068C152.096 17.4097 151.896 16.7986 151.498 16.3868C151.099 15.975 150.528 15.7624 149.811 15.7624C148.974 15.7624 148.323 16.0148 147.845 16.5064C147.366 16.9979 147.127 17.6754 147.127 18.5123V22.2852H146.45V15.1912H147.101V16.7189C147.34 16.2274 147.712 15.8288 148.19 15.5499C148.668 15.2709 149.253 15.1248 149.904 15.1248C150.78 15.1513 151.485 15.4037 152.003 15.9218Z" fill="white"/>
<path d="M162.577 21.8468C162.404 22.0062 162.192 22.139 161.926 22.2187C161.674 22.2984 161.395 22.3516 161.116 22.3516C160.505 22.3516 160.027 22.1789 159.694 21.8468C159.362 21.5014 159.19 21.0364 159.19 20.4253V15.789H157.888V15.2044H159.19V13.6501H159.867V15.2044H162.125V15.789H159.867V20.3456C159.867 20.8106 159.973 21.156 160.199 21.3951C160.425 21.6342 160.744 21.7538 161.182 21.7538C161.621 21.7538 161.993 21.6209 162.285 21.3552L162.577 21.8468Z" fill="white"/>
<path d="M170.03 15.9217C170.548 16.4398 170.8 17.1838 170.8 18.1536V22.2984H170.123V18.2067C170.123 17.4096 169.923 16.7985 169.525 16.3867C169.126 15.9749 168.555 15.7623 167.838 15.7623C167.001 15.7623 166.35 16.0147 165.871 16.5063C165.393 16.9978 165.154 17.6753 165.154 18.5122V22.2851H164.477V12.2153H165.154V16.679C165.393 16.1874 165.765 15.8155 166.243 15.5498C166.722 15.2841 167.293 15.1512 167.944 15.1512C168.821 15.1512 169.511 15.4036 170.03 15.9217Z" fill="white"/>
<path d="M179.608 18.9109H173.51C173.524 19.4688 173.67 19.9604 173.935 20.3855C174.201 20.8106 174.56 21.1427 174.998 21.3818C175.45 21.6209 175.955 21.7405 176.513 21.7405C176.978 21.7405 177.403 21.6608 177.801 21.4881C178.2 21.3154 178.519 21.0763 178.784 20.7442L179.183 21.1958C178.877 21.5678 178.492 21.8468 178.027 22.046C177.562 22.2453 177.057 22.3383 176.513 22.3383C175.809 22.3383 175.171 22.1789 174.626 21.8733C174.068 21.5678 173.643 21.1427 173.324 20.598C173.006 20.0534 172.859 19.429 172.859 18.7382C172.859 18.0474 173.006 17.4363 173.298 16.8783C173.59 16.3337 174.002 15.9085 174.507 15.5897C175.025 15.2842 175.596 15.1248 176.247 15.1248C176.885 15.1248 177.469 15.2709 177.974 15.5764C178.479 15.882 178.891 16.3071 179.183 16.8518C179.475 17.3964 179.621 18.0075 179.621 18.6983L179.608 18.9109ZM174.892 16.0812C174.493 16.3071 174.175 16.6126 173.935 17.0245C173.696 17.423 173.563 17.888 173.524 18.3928H178.957C178.93 17.888 178.798 17.4363 178.545 17.0377C178.306 16.6392 177.974 16.3337 177.575 16.0945C177.177 15.8687 176.725 15.7491 176.234 15.7491C175.742 15.7491 175.29 15.8554 174.892 16.0812Z" fill="white"/>
<path d="M75.4965 43.3015H67.3796L65.7722 47.0611H62.6636L69.9701 30.814H72.9459L80.279 47.0611H77.1172L75.4965 43.3015ZM74.5002 40.9368L71.4314 33.8429L68.3892 40.9368H74.5002Z" fill="white"/>
<path d="M92.1687 35.3172C93.1252 35.8486 93.8691 36.5793 94.4138 37.5491C94.9585 38.5055 95.2241 39.6082 95.2241 40.8702C95.2241 42.119 94.9585 43.2349 94.4138 44.2047C93.8691 45.1744 93.1252 45.9184 92.1687 46.4498C91.2122 46.9811 90.1361 47.2335 88.9272 47.2335C87.2534 47.2335 85.9382 46.6756 84.9551 45.5597V51.5643H82.0591V34.6663H84.8223V36.3003C85.3005 35.7158 85.8983 35.2774 86.6024 34.9718C87.3065 34.6796 88.077 34.5334 88.9405 34.5334C90.1361 34.5334 91.2122 34.7991 92.1687 35.3172ZM91.2388 43.6733C91.9296 42.9559 92.275 42.026 92.275 40.8702C92.275 39.7144 91.9296 38.7712 91.2388 38.0672C90.548 37.3498 89.6712 37.0044 88.6084 37.0044C87.9176 37.0044 87.2799 37.1638 86.7353 37.4826C86.1773 37.8015 85.7389 38.2531 85.4068 38.8377C85.088 39.4222 84.9153 40.0997 84.9153 40.8835C84.9153 41.654 85.0747 42.3315 85.4068 42.9293C85.7256 43.5139 86.1773 43.9655 86.7353 44.2844C87.2932 44.6032 87.9176 44.7626 88.6084 44.7626C89.6712 44.736 90.548 44.3906 91.2388 43.6733Z" fill="white"/>
<path d="M108.084 35.3172C109.04 35.8486 109.784 36.5793 110.329 37.5491C110.873 38.5055 111.139 39.6082 111.139 40.8702C111.139 42.119 110.873 43.2349 110.329 44.2047C109.784 45.1744 109.04 45.9184 108.084 46.4498C107.127 46.9811 106.051 47.2335 104.842 47.2335C103.168 47.2335 101.853 46.6756 100.87 45.5597V51.5643H97.9741V34.6663H100.737V36.3003C101.216 35.7158 101.813 35.2774 102.517 34.9718C103.222 34.6796 103.992 34.5334 104.856 34.5334C106.051 34.5334 107.127 34.7991 108.084 35.3172ZM107.154 43.6733C107.845 42.9559 108.19 42.026 108.19 40.8702C108.19 39.7144 107.845 38.7712 107.154 38.0672C106.463 37.3498 105.586 37.0044 104.523 37.0044C103.833 37.0044 103.195 37.1638 102.65 37.4826C102.092 37.8015 101.654 38.2531 101.322 38.8377C101.003 39.4222 100.83 40.0997 100.83 40.8835C100.83 41.654 100.99 42.3315 101.322 42.9293C101.641 43.5139 102.092 43.9655 102.65 44.2844C103.208 44.6032 103.833 44.7626 104.523 44.7626C105.586 44.736 106.463 44.3906 107.154 43.6733Z" fill="white"/>
<path d="M121.98 46.7554C120.811 46.3967 119.894 45.9318 119.203 45.334L120.253 42.9959C120.917 43.5273 121.727 43.9524 122.697 44.2845C123.667 44.6166 124.637 44.7893 125.606 44.7893C126.815 44.7893 127.719 44.59 128.303 44.2048C128.901 43.8195 129.193 43.3014 129.193 42.677C129.193 42.2121 129.02 41.8268 128.688 41.5346C128.356 41.229 127.931 41.0032 127.426 40.8305C126.921 40.6578 126.217 40.4718 125.341 40.246C124.105 39.9537 123.096 39.6614 122.338 39.3692C121.568 39.0769 120.917 38.6119 120.372 37.9876C119.828 37.3632 119.549 36.513 119.549 35.4502C119.549 34.5469 119.788 33.7365 120.279 33.0058C120.771 32.2752 121.501 31.6907 122.484 31.2523C123.467 30.8139 124.663 30.6013 126.098 30.6013C127.094 30.6013 128.064 30.7209 129.02 30.9733C129.977 31.2257 130.801 31.5711 131.505 32.0361L130.548 34.3742C129.831 33.9623 129.1 33.6435 128.316 33.4177C127.546 33.2051 126.789 33.0988 126.071 33.0988C124.876 33.0988 123.999 33.2981 123.414 33.6966C122.83 34.0952 122.551 34.6266 122.551 35.3041C122.551 35.769 122.71 36.141 123.056 36.4466C123.388 36.7388 123.813 36.9779 124.318 37.1374C124.823 37.3101 125.527 37.496 126.403 37.7219C127.612 38.0009 128.595 38.2931 129.379 38.5854C130.15 38.8909 130.814 39.3426 131.359 39.967C131.903 40.5914 132.182 41.415 132.182 42.4778C132.182 43.3811 131.943 44.1915 131.452 44.9089C130.96 45.6395 130.229 46.2107 129.233 46.6491C128.237 47.0875 127.041 47.3001 125.62 47.3001C124.358 47.2868 123.149 47.1141 121.98 46.7554Z" fill="white"/>
<path d="M142.345 46.3834C141.999 46.6623 141.587 46.8749 141.109 47.0077C140.618 47.1406 140.113 47.2203 139.568 47.2203C138.213 47.2203 137.15 46.8616 136.406 46.1575C135.662 45.4401 135.29 44.4039 135.29 43.0489V37.0841H133.245V34.7593H135.29V31.9297H138.187V34.7593H141.508V37.0841H138.187V42.9825C138.187 43.5803 138.333 44.0453 138.625 44.3641C138.917 44.6829 139.342 44.8423 139.9 44.8423C140.551 44.8423 141.096 44.6696 141.521 44.3375L142.345 46.3834Z" fill="white"/>
<path d="M146.503 46.41C145.493 45.8654 144.709 45.1082 144.151 44.1517C143.58 43.1819 143.301 42.0925 143.301 40.8704C143.301 39.6482 143.58 38.5588 144.151 37.6023C144.709 36.6458 145.507 35.8886 146.503 35.3572C147.513 34.8126 148.642 34.5469 149.89 34.5469C151.152 34.5469 152.295 34.8126 153.305 35.3572C154.314 35.9019 155.098 36.6458 155.656 37.6023C156.214 38.5588 156.506 39.6482 156.506 40.8704C156.506 42.0925 156.227 43.1819 155.656 44.1517C155.085 45.1214 154.301 45.8787 153.305 46.41C152.295 46.9547 151.166 47.2204 149.89 47.2204C148.628 47.2204 147.499 46.9547 146.503 46.41ZM152.534 43.6734C153.225 42.956 153.584 42.0261 153.584 40.8704C153.584 39.7146 153.238 38.7714 152.534 38.0673C151.843 37.3499 150.953 37.0045 149.89 37.0045C148.828 37.0045 147.951 37.3632 147.26 38.0673C146.569 38.7847 146.224 39.7146 146.224 40.8704C146.224 42.0261 146.569 42.9693 147.26 43.6734C147.951 44.3908 148.828 44.7362 149.89 44.7362C150.953 44.7362 151.83 44.3908 152.534 43.6734Z" fill="white"/>
<path d="M166.456 34.5334V37.2966C166.204 37.2568 165.978 37.2302 165.779 37.2302C164.65 37.2302 163.773 37.5623 163.135 38.2133C162.498 38.8775 162.179 39.8207 162.179 41.0562V47.0608H159.283V34.6663H162.046V36.473C162.883 35.1844 164.344 34.5334 166.456 34.5334Z" fill="white"/>
<path d="M180.392 41.8003H170.668C170.84 42.7169 171.279 43.4343 171.996 43.9657C172.713 44.4971 173.604 44.7628 174.68 44.7628C176.035 44.7628 177.164 44.3111 178.041 43.421L179.608 45.2011C179.05 45.8654 178.346 46.3702 177.496 46.7156C176.646 47.061 175.689 47.2204 174.613 47.2204C173.258 47.2204 172.049 46.9547 171.013 46.41C169.977 45.8654 169.18 45.1082 168.609 44.1517C168.037 43.1819 167.758 42.0925 167.758 40.8704C167.758 39.6615 168.037 38.5721 168.582 37.6156C169.127 36.6458 169.897 35.8886 170.867 35.3572C171.837 34.8126 172.939 34.5469 174.161 34.5469C175.37 34.5469 176.446 34.8126 177.403 35.344C178.359 35.8753 179.103 36.6326 179.635 37.5891C180.166 38.5588 180.432 39.6747 180.432 40.9368C180.445 41.136 180.432 41.4283 180.392 41.8003ZM171.823 37.6688C171.186 38.2134 170.787 38.9441 170.654 39.8607H177.682C177.562 38.9574 177.177 38.24 176.539 37.682C175.902 37.1241 175.118 36.8451 174.175 36.8451C173.258 36.8451 172.461 37.1241 171.823 37.6688Z" fill="white"/>
</svg>
