<svg width="203" height="30" viewBox="0 0 203 30" fill="none" xmlns="http://www.w3.org/2000/svg">
<path d="M11.4929 9.9476C15.0734 3.78913 21.6594 0 28.7831 0L113.122 0C127.436 0 141.279 5.11763 152.151 14.429L170 29.7154H0L11.4929 9.9476Z" fill="white"/>
<path d="M29.079 23.7155V14.6155H33.213C36.19 14.6155 38.231 16.4095 38.231 19.1655C38.231 21.9215 36.19 23.7155 33.213 23.7155H29.079ZM31.185 21.9865H33.109C34.916 21.9865 36.099 20.9075 36.099 19.1655C36.099 17.4235 34.916 16.3445 33.109 16.3445H31.185V21.9865ZM43.8882 15.8245H42.3022L39.9492 13.9525H42.1332L43.8882 15.8245ZM42.4972 16.6175C44.6292 16.6175 45.8642 17.6055 45.8642 19.7245V23.7155H43.9662V22.8445C43.5892 23.4815 42.8612 23.8195 41.8342 23.8195C40.1962 23.8195 39.2212 22.9095 39.2212 21.7005C39.2212 20.4655 40.0922 19.6075 42.2242 19.6075H43.8362C43.8362 18.7365 43.3162 18.2295 42.2242 18.2295C41.4832 18.2295 40.7162 18.4765 40.2092 18.8795L39.4812 17.4625C40.2482 16.9165 41.3792 16.6175 42.4972 16.6175ZM42.3412 22.4545C43.0172 22.4545 43.6022 22.1425 43.8362 21.5055V20.7905H42.4452C41.4962 20.7905 41.1972 21.1415 41.1972 21.6095C41.1972 22.1165 41.6262 22.4545 42.3412 22.4545ZM51.9507 16.6175C53.6017 16.6175 54.8497 17.5795 54.8497 19.7115V23.7155H52.8217V20.0235C52.8217 18.8925 52.3017 18.3725 51.4047 18.3725C50.4297 18.3725 49.7277 18.9705 49.7277 20.2575V23.7155H47.6997V16.7215H49.6367V17.5405C50.1827 16.9425 51.0017 16.6175 51.9507 16.6175ZM60.939 16.6175C62.59 16.6175 63.838 17.5795 63.838 19.7115V23.7155H61.81V20.0235C61.81 18.8925 61.29 18.3725 60.393 18.3725C59.418 18.3725 58.716 18.9705 58.716 20.2575V23.7155H56.688V14.0695H58.716V17.4495C59.262 16.9035 60.042 16.6175 60.939 16.6175ZM72.7379 23.8195C70.4629 23.8195 68.8379 22.3245 68.8379 20.2185C68.8379 18.1125 70.4629 16.6175 72.7379 16.6175C74.2069 16.6175 75.3639 17.2545 75.8709 18.3985L74.2979 19.2435C73.9209 18.5805 73.3619 18.2815 72.7249 18.2815C71.6979 18.2815 70.8919 18.9965 70.8919 20.2185C70.8919 21.4405 71.6979 22.1555 72.7249 22.1555C73.3619 22.1555 73.9209 21.8695 74.2979 21.1935L75.8709 22.0515C75.3639 23.1695 74.2069 23.8195 72.7379 23.8195ZM81.2388 16.6175C82.8898 16.6175 84.1378 17.5795 84.1378 19.7115V23.7155H82.1098V20.0235C82.1098 18.8925 81.5898 18.3725 80.6928 18.3725C79.7178 18.3725 79.0158 18.9705 79.0158 20.2575V23.7155H76.9878V14.0695H79.0158V17.4495C79.5618 16.9035 80.3418 16.6175 81.2388 16.6175ZM89.3802 23.8195C87.1572 23.8195 85.5322 22.3245 85.5322 20.2185C85.5322 18.1125 87.1572 16.6175 89.3802 16.6175C91.6032 16.6175 93.2152 18.1125 93.2152 20.2185C93.2152 22.3245 91.6032 23.8195 89.3802 23.8195ZM89.3802 22.1555C90.3942 22.1555 91.1612 21.4275 91.1612 20.2185C91.1612 19.0095 90.3942 18.2815 89.3802 18.2815C88.3662 18.2815 87.5862 19.0095 87.5862 20.2185C87.5862 21.4275 88.3662 22.1555 89.3802 22.1555ZM102.386 16.6175C104.349 16.6175 105.87 18.0215 105.87 20.2185C105.87 22.4155 104.349 23.8195 102.386 23.8195C101.45 23.8195 100.696 23.5205 100.189 22.9095V23.7155H98.2524V14.0695H100.28V17.4625C100.8 16.8905 101.515 16.6175 102.386 16.6175ZM102.035 22.1555C103.049 22.1555 103.816 21.4275 103.816 20.2185C103.816 19.0095 103.049 18.2815 102.035 18.2815C101.021 18.2815 100.254 19.0095 100.254 20.2185C100.254 21.4275 101.021 22.1555 102.035 22.1555ZM109.935 16.6175C112.067 16.6175 113.302 17.6055 113.302 19.7245V23.7155H111.404V22.8445C111.027 23.4815 110.299 23.8195 109.272 23.8195C107.634 23.8195 106.659 22.9095 106.659 21.7005C106.659 20.4655 107.53 19.6075 109.662 19.6075H111.274C111.274 18.7365 110.754 18.2295 109.662 18.2295C108.921 18.2295 108.154 18.4765 107.647 18.8795L106.919 17.4625C107.686 16.9165 108.817 16.6175 109.935 16.6175ZM109.779 22.4545C110.455 22.4545 111.04 22.1425 111.274 21.5055V20.7905H109.883C108.934 20.7905 108.635 21.1415 108.635 21.6095C108.635 22.1165 109.064 22.4545 109.779 22.4545ZM109.987 24.6645C110.494 24.6645 110.884 25.0415 110.884 25.5745C110.884 26.1075 110.494 26.4455 109.987 26.4455C109.48 26.4455 109.09 26.1075 109.09 25.5745C109.09 25.0415 109.48 24.6645 109.987 24.6645ZM119.388 16.6175C121.039 16.6175 122.287 17.5795 122.287 19.7115V23.7155H120.259V20.0235C120.259 18.8925 119.739 18.3725 118.842 18.3725C117.867 18.3725 117.165 18.9705 117.165 20.2575V23.7155H115.137V16.7215H117.074V17.5405C117.62 16.9425 118.439 16.6175 119.388 16.6175Z" fill="#2257C1"/>
</svg>
