<svg width="492" height="86" viewBox="0 0 492 86" fill="none" xmlns="http://www.w3.org/2000/svg">
<path d="M44.2165 9.94758C47.797 3.78911 54.383 0 61.5067 0L369.404 0C383.718 0 397.561 5.11763 408.433 14.429L492 86H0L44.2165 9.94758Z" fill="white"/>
<path d="M93.344 49.256V44.336H96.896V51.152C95.048 52.544 92.504 53.288 90.104 53.288C84.824 53.288 80.936 49.664 80.936 44.6C80.936 39.536 84.824 35.912 90.176 35.912C93.128 35.912 95.576 36.92 97.208 38.816L94.712 41.12C93.488 39.824 92.072 39.224 90.368 39.224C87.104 39.224 84.872 41.408 84.872 44.6C84.872 47.744 87.104 49.976 90.32 49.976C91.376 49.976 92.36 49.784 93.344 49.256ZM104.156 38.432L107.396 34.976H111.428L107.084 38.432H104.156ZM106.388 53.192C102.284 53.192 99.2836 50.432 99.2836 46.544C99.2836 42.656 102.284 39.896 106.388 39.896C110.492 39.896 113.468 42.656 113.468 46.544C113.468 50.432 110.492 53.192 106.388 53.192ZM106.388 50.12C108.26 50.12 109.676 48.776 109.676 46.544C109.676 44.312 108.26 42.968 106.388 42.968C104.516 42.968 103.076 44.312 103.076 46.544C103.076 48.776 104.516 50.12 106.388 50.12ZM117.842 38.288C116.45 38.288 115.514 37.376 115.514 36.2C115.514 35.024 116.45 34.112 117.842 34.112C119.234 34.112 120.17 34.976 120.17 36.128C120.17 37.376 119.234 38.288 117.842 38.288ZM115.97 53V40.088H119.714V53H115.97ZM136.226 53.192C132.026 53.192 129.026 50.432 129.026 46.544C129.026 42.656 132.026 39.896 136.226 39.896C138.938 39.896 141.074 41.072 142.01 43.184L139.106 44.744C138.41 43.52 137.378 42.968 136.202 42.968C134.306 42.968 132.818 44.288 132.818 46.544C132.818 48.8 134.306 50.12 136.202 50.12C137.378 50.12 138.41 49.592 139.106 48.344L142.01 49.928C141.074 51.992 138.938 53.192 136.226 53.192ZM159.358 38.72C159.358 40.448 158.566 41.696 157.174 42.248V53H153.622V51.464C152.638 52.592 151.198 53.192 149.614 53.192C146.374 53.192 144.094 51.368 144.094 47.384V40.088H147.838V46.832C147.838 48.992 148.798 49.952 150.454 49.952C152.182 49.952 153.43 48.848 153.43 46.472V40.088H155.422C156.286 40.088 156.862 39.464 156.862 38.576C156.862 38 156.67 37.496 156.382 37.136L158.59 36.32C159.07 36.944 159.358 37.76 159.358 38.72ZM171.757 34.976L167.413 38.432H164.485L167.725 34.976H171.757ZM171.757 41.792C173.005 42.968 173.749 44.6 173.749 46.544C173.749 50.432 170.773 53.192 166.669 53.192C162.565 53.192 159.565 50.432 159.565 46.544C159.565 42.656 162.565 39.896 166.693 39.896C167.941 39.896 168.661 40.112 169.549 40.112C170.581 40.112 171.085 39.44 171.085 38.552C171.085 38 170.869 37.496 170.581 37.112L172.765 36.296C173.245 36.944 173.581 37.76 173.581 38.696C173.581 40.088 172.909 41.192 171.757 41.792ZM166.669 50.12C168.517 50.12 169.957 48.776 169.957 46.544C169.957 44.312 168.541 42.968 166.669 42.968C164.797 42.968 163.357 44.312 163.357 46.544C163.357 48.776 164.797 50.12 166.669 50.12ZM182.491 53.192C178.291 53.192 175.291 50.432 175.291 46.544C175.291 42.656 178.291 39.896 182.491 39.896C185.203 39.896 187.339 41.072 188.275 43.184L185.371 44.744C184.675 43.52 183.643 42.968 182.467 42.968C180.571 42.968 179.083 44.288 179.083 46.544C179.083 48.8 180.571 50.12 182.467 50.12C183.643 50.12 184.675 49.592 185.371 48.344L188.275 49.928C187.339 51.992 185.203 53.192 182.491 53.192ZM206.636 35.192H210.38V53H206.804V51.512C205.868 52.64 204.5 53.192 202.772 53.192C199.124 53.192 196.316 50.6 196.316 46.544C196.316 42.488 199.124 39.896 202.772 39.896C204.356 39.896 205.7 40.4 206.636 41.456V35.192ZM203.42 50.12C205.268 50.12 206.708 48.776 206.708 46.544C206.708 44.312 205.268 42.968 203.42 42.968C201.548 42.968 200.108 44.312 200.108 46.544C200.108 48.776 201.548 50.12 203.42 50.12ZM221.621 38.432H218.693L214.349 34.976H218.381L221.621 38.432ZM219.053 39.896C222.989 39.896 225.269 41.72 225.269 45.632V53H221.765V51.392C221.069 52.568 219.725 53.192 217.829 53.192C214.805 53.192 213.005 51.512 213.005 49.28C213.005 47 214.613 45.416 218.549 45.416H221.525C221.525 43.808 220.565 42.872 218.549 42.872C217.181 42.872 215.765 43.328 214.829 44.072L213.485 41.456C214.901 40.448 216.989 39.896 219.053 39.896ZM218.765 50.672C220.013 50.672 221.093 50.096 221.525 48.92V47.6H218.957C217.205 47.6 216.653 48.248 216.653 49.112C216.653 50.048 217.445 50.672 218.765 50.672ZM236.506 39.896C239.554 39.896 241.858 41.672 241.858 45.608V53H238.114V46.184C238.114 44.096 237.154 43.136 235.498 43.136C233.698 43.136 232.402 44.24 232.402 46.616V53H228.658V40.088H232.234V41.6C233.242 40.496 234.754 39.896 236.506 39.896ZM253.099 39.896C256.147 39.896 258.451 41.672 258.451 45.608V53H254.707V46.184C254.707 44.096 253.747 43.136 252.091 43.136C250.291 43.136 248.995 44.24 248.995 46.616V53H245.251V35.192H248.995V41.432C250.003 40.424 251.443 39.896 253.099 39.896ZM274.882 53.192C270.682 53.192 267.682 50.432 267.682 46.544C267.682 42.656 270.682 39.896 274.882 39.896C277.594 39.896 279.73 41.072 280.666 43.184L277.762 44.744C277.066 43.52 276.034 42.968 274.858 42.968C272.962 42.968 271.474 44.288 271.474 46.544C271.474 48.8 272.962 50.12 274.858 50.12C276.034 50.12 277.066 49.592 277.762 48.344L280.666 49.928C279.73 51.992 277.594 53.192 274.882 53.192ZM290.576 39.896C293.624 39.896 295.928 41.672 295.928 45.608V53H292.184V46.184C292.184 44.096 291.224 43.136 289.568 43.136C287.768 43.136 286.472 44.24 286.472 46.616V53H282.728V35.192H286.472V41.432C287.48 40.424 288.92 39.896 290.576 39.896ZM305.606 53.192C301.502 53.192 298.502 50.432 298.502 46.544C298.502 42.656 301.502 39.896 305.606 39.896C309.71 39.896 312.686 42.656 312.686 46.544C312.686 50.432 309.71 53.192 305.606 53.192ZM305.606 50.12C307.478 50.12 308.894 48.776 308.894 46.544C308.894 44.312 307.478 42.968 305.606 42.968C303.734 42.968 302.294 44.312 302.294 46.544C302.294 48.776 303.734 50.12 305.606 50.12ZM329.618 39.896C333.242 39.896 336.05 42.488 336.05 46.544C336.05 50.6 333.242 53.192 329.618 53.192C327.89 53.192 326.498 52.64 325.562 51.512V53H321.986V35.192H325.73V41.456C326.69 40.4 328.01 39.896 329.618 39.896ZM328.97 50.12C330.842 50.12 332.258 48.776 332.258 46.544C332.258 44.312 330.842 42.968 328.97 42.968C327.098 42.968 325.682 44.312 325.682 46.544C325.682 48.776 327.098 50.12 328.97 50.12ZM343.553 39.896C347.489 39.896 349.769 41.72 349.769 45.632V53H346.265V51.392C345.569 52.568 344.225 53.192 342.329 53.192C339.305 53.192 337.505 51.512 337.505 49.28C337.505 47 339.113 45.416 343.049 45.416H346.025C346.025 43.808 345.065 42.872 343.049 42.872C341.681 42.872 340.265 43.328 339.329 44.072L337.985 41.456C339.401 40.448 341.489 39.896 343.553 39.896ZM343.265 50.672C344.513 50.672 345.593 50.096 346.025 48.92V47.6H343.457C341.705 47.6 341.153 48.248 341.153 49.112C341.153 50.048 341.945 50.672 343.265 50.672ZM343.649 54.752C344.585 54.752 345.305 55.448 345.305 56.432C345.305 57.416 344.585 58.04 343.649 58.04C342.713 58.04 341.993 57.416 341.993 56.432C341.993 55.448 342.713 54.752 343.649 54.752ZM361.006 39.896C364.054 39.896 366.358 41.672 366.358 45.608V53H362.614V46.184C362.614 44.096 361.654 43.136 359.998 43.136C358.198 43.136 356.902 44.24 356.902 46.616V53H353.158V40.088H356.734V41.6C357.742 40.496 359.254 39.896 361.006 39.896Z" fill="#2257C1"/>
</svg>
