<svg width="200" height="61" viewBox="0 0 200 61" fill="none" xmlns="http://www.w3.org/2000/svg">
<path d="M48.1301 29.6382L40.5047 25.241L34.2344 31.2988L39.96 36.8384L48.1168 32.1224C48.5685 31.87 48.8342 31.3917 48.8342 30.8736C48.8475 30.3555 48.5685 29.8906 48.1301 29.6382Z" fill="#FFD109"/>
<path d="M39.2158 24.4969L30.8199 19.648L12.4473 10.2292L33.2111 30.3023L39.2158 24.4969Z" fill="#06EF79"/>
<path d="M12.7529 52.0624L30.8599 42.0857L38.6712 37.5822L33.2113 32.2949L12.7529 52.0624Z" fill="#F93646"/>
<path d="M11.2253 11.0396L11.1987 51.5709L32.1751 31.2986L11.2253 11.0396Z" fill="#05D5FB"/>
<path d="M192.268 1.32846C195.802 1.32846 198.672 4.19794 198.672 7.73165V53.0986C198.672 56.6324 195.802 59.5018 192.268 59.5018H7.73165C4.19794 59.5018 1.32846 56.6324 1.32846 53.0986V7.73165C1.32846 4.19794 4.19794 1.32846 7.73165 1.32846H192.268ZM192.268 0H7.73165C3.46729 0 0 3.46729 0 7.73165V53.0986C0 57.363 3.46729 60.8303 7.73165 60.8303H192.268C196.533 60.8303 200 57.363 200 53.0986V7.73165C200 3.46729 196.546 0 192.268 0Z" fill="white"/>
<path d="M65.5461 36.7452H68.3359V43.0687C67.5255 43.7196 66.569 44.2111 65.4797 44.5698C64.3903 44.9152 63.2744 45.0879 62.1187 45.0879C60.498 45.0879 59.0366 44.7425 57.748 44.0384C56.4461 43.3344 55.4232 42.3646 54.6926 41.1291C53.9486 39.8936 53.5767 38.4855 53.5767 36.9312C53.5767 35.3769 53.9486 33.982 54.6926 32.7332C55.4365 31.4978 56.4594 30.528 57.7613 29.8239C59.0632 29.1198 60.5378 28.7744 62.1718 28.7744C63.5003 28.7744 64.7092 29.0003 65.7985 29.4386C66.8879 29.877 67.8045 30.5147 68.5484 31.3649L66.6886 33.1849C65.4797 31.976 64.0184 31.3649 62.3179 31.3649C61.202 31.3649 60.2057 31.604 59.3422 32.069C58.4787 32.534 57.7879 33.1982 57.2964 34.0484C56.8048 34.8986 56.5657 35.8684 56.5657 36.9445C56.5657 38.0072 56.8048 38.9504 57.2964 39.8007C57.7879 40.6509 58.4654 41.3151 59.3422 41.7933C60.2057 42.2716 61.202 42.524 62.3047 42.524C63.5401 42.524 64.6295 42.2583 65.5727 41.7136V36.7452H65.5461Z" fill="white"/>
<path d="M74.075 44.2244C73.0919 43.693 72.3214 42.9623 71.7768 42.0191C71.2188 41.0759 70.9531 39.9999 70.9531 38.8043C70.9531 37.6086 71.2321 36.5459 71.7768 35.6027C72.3347 34.6595 73.0919 33.9288 74.075 33.3974C75.0581 32.866 76.1607 32.6003 77.3829 32.6003C78.6184 32.6003 79.7343 32.866 80.7173 33.3974C81.7004 33.9288 82.4709 34.6595 83.0156 35.6027C83.5735 36.5459 83.8392 37.6086 83.8392 38.8043C83.8392 39.9999 83.5602 41.0626 83.0156 42.0191C82.4576 42.9623 81.7004 43.7063 80.7173 44.2244C79.7343 44.7558 78.6184 45.0215 77.3829 45.0215C76.1607 45.0215 75.0581 44.7558 74.075 44.2244ZM79.9734 41.5542C80.6509 40.8634 80.9963 39.9467 80.9963 38.8043C80.9963 37.6751 80.6509 36.7584 79.9734 36.0543C79.2959 35.3635 78.4324 35.0049 77.3829 35.0049C76.3334 35.0049 75.4832 35.3503 74.8057 36.0543C74.1281 36.7451 73.796 37.6618 73.796 38.8043C73.796 39.9335 74.1281 40.8501 74.8057 41.5542C75.4832 42.245 76.3334 42.6037 77.3829 42.6037C78.4324 42.5904 79.2826 42.245 79.9734 41.5542Z" fill="white"/>
<path d="M88.701 44.2244C87.7179 43.693 86.9474 42.9623 86.4027 42.0191C85.8448 41.0759 85.5791 39.9999 85.5791 38.8043C85.5791 37.6086 85.8581 36.5459 86.4027 35.6027C86.9607 34.6595 87.7179 33.9288 88.701 33.3974C89.6841 32.866 90.7867 32.6003 92.0089 32.6003C93.2443 32.6003 94.3602 32.866 95.3433 33.3974C96.3264 33.9288 97.0969 34.6595 97.6415 35.6027C98.1995 36.5459 98.4652 37.6086 98.4652 38.8043C98.4652 39.9999 98.1862 41.0626 97.6415 42.0191C97.0836 42.9623 96.3264 43.7063 95.3433 44.2244C94.3602 44.7558 93.2443 45.0215 92.0089 45.0215C90.7867 45.0215 89.6841 44.7558 88.701 44.2244ZM94.5994 41.5542C95.2769 40.8634 95.6223 39.9467 95.6223 38.8043C95.6223 37.6751 95.2769 36.7584 94.5994 36.0543C93.9218 35.3635 93.0583 35.0049 92.0089 35.0049C90.9594 35.0049 90.1092 35.3503 89.4316 36.0543C88.7541 36.7451 88.422 37.6618 88.422 38.8043C88.422 39.9335 88.7541 40.8501 89.4316 41.5542C90.1092 42.245 90.9594 42.6037 92.0089 42.6037C93.0583 42.5904 93.9086 42.245 94.5994 41.5542Z" fill="white"/>
<path d="M113.211 32.7465V43.0155C113.211 47.2799 111.033 49.4054 106.675 49.4054C105.506 49.4054 104.404 49.2593 103.368 48.967C102.318 48.6748 101.468 48.2497 100.777 47.6917L102.052 45.5662C102.584 46.0046 103.248 46.35 104.058 46.6157C104.869 46.8814 105.692 47.0142 106.516 47.0142C107.844 47.0142 108.827 46.7087 109.439 46.1108C110.063 45.4998 110.369 44.5831 110.369 43.3476V42.71C109.89 43.2414 109.292 43.6399 108.602 43.9056C107.911 44.1713 107.14 44.3174 106.317 44.3174C105.174 44.3174 104.125 44.0783 103.195 43.5868C102.265 43.0952 101.534 42.4044 100.99 41.5144C100.458 40.6243 100.179 39.6014 100.179 38.4589C100.179 37.3164 100.445 36.2935 100.99 35.4034C101.521 34.5134 102.265 33.8359 103.195 33.3576C104.125 32.8794 105.161 32.627 106.317 32.627C107.193 32.627 107.991 32.7731 108.708 33.0521C109.425 33.3443 110.023 33.7827 110.515 34.3672V32.7598H113.211V32.7465ZM109.385 40.9431C110.076 40.3055 110.422 39.4685 110.422 38.4323C110.422 37.4227 110.076 36.5991 109.385 35.9614C108.695 35.3237 107.818 35.0049 106.742 35.0049C105.652 35.0049 104.762 35.3237 104.072 35.9614C103.381 36.5991 103.035 37.4227 103.035 38.4323C103.035 39.4552 103.381 40.2922 104.072 40.9431C104.762 41.5808 105.652 41.9129 106.742 41.9129C107.818 41.9129 108.708 41.5941 109.385 40.9431Z" fill="white"/>
<path d="M116.931 28.0305H119.761V44.8621H116.931V28.0305Z" fill="white"/>
<path d="M134.825 39.7078H125.327C125.499 40.5978 125.925 41.3019 126.629 41.8333C127.333 42.3514 128.21 42.6171 129.246 42.6171C130.574 42.6171 131.677 42.1787 132.54 41.3019L134.055 43.0422C133.51 43.6931 132.819 44.1847 131.996 44.5168C131.159 44.8489 130.229 45.0216 129.179 45.0216C127.851 45.0216 126.682 44.7559 125.659 44.2245C124.649 43.6931 123.865 42.9625 123.308 42.0193C122.75 41.0761 122.484 40 122.484 38.8044C122.484 37.6221 122.75 36.5593 123.294 35.6161C123.826 34.6729 124.57 33.9289 125.526 33.4108C126.483 32.8795 127.545 32.6138 128.741 32.6138C129.923 32.6138 130.973 32.8795 131.903 33.3976C132.833 33.9157 133.563 34.6463 134.081 35.6028C134.599 36.546 134.865 37.6354 134.865 38.8841C134.865 39.0701 134.852 39.3491 134.825 39.7078ZM126.443 35.6825C125.818 36.2139 125.433 36.9313 125.3 37.8213H132.168C132.049 36.9446 131.677 36.2405 131.052 35.6958C130.428 35.1511 129.658 34.8854 128.741 34.8854C127.838 34.8854 127.067 35.1511 126.443 35.6825Z" fill="white"/>
<path d="M154.247 29.6646C155.27 30.1163 156.054 30.7672 156.599 31.6174C157.144 32.4676 157.409 33.464 157.409 34.633C157.409 35.7755 157.144 36.7851 156.599 37.6353C156.054 38.4856 155.27 39.1498 154.247 39.6015C153.225 40.0532 152.029 40.279 150.647 40.279H147.061V44.8622H144.111V28.9871H150.647C152.029 28.9871 153.225 29.2129 154.247 29.6646ZM153.437 36.9711C154.101 36.4264 154.433 35.6427 154.433 34.633C154.433 33.6234 154.101 32.8396 153.437 32.2949C152.773 31.7503 151.803 31.4846 150.515 31.4846H147.074V37.7948H150.515C151.803 37.7815 152.773 37.5158 153.437 36.9711Z" fill="white"/>
<path d="M160.305 28.0305H163.135V44.8621H160.305V28.0305Z" fill="white"/>
<path d="M175.583 33.8891C176.526 34.7393 177.004 36.0279 177.004 37.7549V44.8489H174.334V43.3743C173.988 43.9057 173.497 44.3042 172.846 44.5832C172.208 44.8622 171.425 45.0083 170.521 45.0083C169.618 45.0083 168.821 44.8489 168.143 44.5434C167.466 44.2378 166.934 43.7994 166.562 43.2548C166.19 42.6968 166.004 42.0857 166.004 41.3816C166.004 40.2923 166.403 39.4155 167.213 38.7645C168.024 38.1003 169.299 37.7815 171.039 37.7815H174.174V37.5955C174.174 36.7453 173.922 36.0943 173.417 35.6427C172.912 35.191 172.155 34.9651 171.159 34.9651C170.481 34.9651 169.804 35.0714 169.153 35.284C168.489 35.4965 167.944 35.7888 167.492 36.174L166.376 34.1149C167.014 33.6367 167.771 33.2647 168.661 32.999C169.551 32.7466 170.495 32.6138 171.491 32.6138C173.271 32.6138 174.639 33.0389 175.583 33.8891ZM172.992 42.471C173.55 42.1521 173.935 41.6872 174.161 41.0761V39.6679H171.239C169.605 39.6679 168.794 40.1993 168.794 41.2753C168.794 41.7934 168.993 42.192 169.405 42.4975C169.817 42.8031 170.375 42.9492 171.106 42.9492C171.81 42.9492 172.447 42.7898 172.992 42.471Z" fill="white"/>
<path d="M191.737 32.7466L186.064 45.8319C185.533 47.1471 184.895 48.077 184.138 48.6084C183.381 49.1398 182.464 49.4188 181.388 49.4188C180.777 49.4188 180.192 49.3258 179.595 49.1265C179.01 48.9272 178.518 48.6616 178.146 48.3162L179.276 46.2305C179.541 46.4829 179.873 46.6954 180.245 46.8416C180.617 46.9877 180.989 47.0674 181.361 47.0674C181.866 47.0674 182.278 46.9346 182.597 46.6821C182.916 46.4297 183.221 45.9914 183.487 45.3935L183.686 44.9153L178.399 32.7599H181.348L185.161 41.7137L188.987 32.7599H191.737V32.7466Z" fill="white"/>
<path d="M58.6517 20.1659C58.0141 20.1659 57.4163 20.033 56.8583 19.7541C56.3004 19.4751 55.8221 19.1031 55.4103 18.6249C54.9985 18.1599 54.6796 17.6285 54.4538 17.0307C54.228 16.4462 54.1084 15.8351 54.1084 15.1974C54.1084 14.5332 54.228 13.9088 54.4538 13.3243C54.6796 12.7398 54.9985 12.2084 55.4103 11.7567C55.8221 11.305 56.3004 10.9464 56.845 10.6807C57.403 10.415 58.0008 10.2954 58.6517 10.2954C59.5949 10.2954 60.3655 10.4947 60.9898 10.8799C61.6009 11.2785 62.0659 11.7833 62.3714 12.4209L61.4282 13.0852C61.1492 12.5139 60.7507 12.1021 60.2592 11.8231C59.7677 11.5442 59.223 11.4113 58.6252 11.4113C58.1336 11.4113 57.682 11.5176 57.2834 11.7301C56.8849 11.9427 56.5395 12.2217 56.2472 12.5937C55.955 12.9523 55.7424 13.3642 55.583 13.8158C55.4369 14.2675 55.3572 14.7458 55.3572 15.2373C55.3572 15.7554 55.4369 16.2469 55.6096 16.7119C55.7823 17.1768 56.0214 17.5754 56.3269 17.9341C56.6325 18.2928 57.0044 18.5584 57.4163 18.7577C57.8281 18.957 58.2665 19.0633 58.7447 19.0633C59.3027 19.0633 59.8341 18.9171 60.3389 18.6382C60.8437 18.3592 61.3219 17.9208 61.7603 17.3363V18.6116C60.8836 19.6478 59.8474 20.1659 58.6517 20.1659ZM61.6142 16.1805H59.5152V15.2506H62.6504V20.1127H61.6142V16.1805Z" fill="white"/>
<path d="M71.1392 19.0101V20.1127H64.5234V10.3618H71.0063V11.4644H65.7589V14.6129H70.3288V15.6358H65.7589V18.9968H71.1392V19.0101Z" fill="white"/>
<path d="M79.854 11.4644H76.493V20.1127H75.2575V11.4644H71.8965V10.3618H79.854V11.4644Z" fill="white"/>
<path d="M84.3179 20.0994V10.3618H85.5533V20.0994H84.3179Z" fill="white"/>
<path d="M89.1134 12.6468V20.1127H87.8779V10.3618H88.9141L94.8656 17.9739V10.3751H96.1011V20.0994H94.9852L89.1134 12.6468Z" fill="white"/>
<path d="M105.865 20.166C105.175 20.166 104.564 20.0331 104.006 19.7542C103.448 19.4752 102.969 19.1032 102.558 18.6383C102.146 18.1733 101.84 17.6419 101.614 17.0441C101.389 16.4596 101.282 15.8485 101.282 15.2241C101.282 14.5732 101.402 13.9488 101.628 13.3643C101.867 12.7797 102.186 12.2484 102.597 11.7834C103.009 11.3184 103.501 10.9597 104.059 10.6808C104.617 10.4151 105.228 10.2822 105.879 10.2822C106.57 10.2822 107.181 10.4284 107.739 10.7073C108.297 10.9863 108.775 11.3716 109.173 11.8498C109.572 12.3281 109.891 12.8594 110.103 13.444C110.329 14.0285 110.435 14.6263 110.435 15.2374C110.435 15.8883 110.316 16.5127 110.09 17.0972C109.864 17.6818 109.545 18.2131 109.12 18.6781C108.708 19.1431 108.217 19.5018 107.659 19.7674C107.127 20.0464 106.516 20.166 105.865 20.166ZM102.531 15.2374C102.531 15.7289 102.611 16.2072 102.77 16.6721C102.93 17.1371 103.155 17.5489 103.448 17.8943C103.74 18.253 104.099 18.532 104.51 18.7445C104.922 18.9571 105.374 19.0634 105.879 19.0634C106.397 19.0634 106.862 18.9571 107.274 18.7312C107.685 18.5054 108.031 18.2131 108.323 17.8545C108.615 17.4825 108.828 17.0707 108.987 16.619C109.133 16.1673 109.213 15.7024 109.213 15.2374C109.213 14.7459 109.133 14.2676 108.974 13.8159C108.815 13.3643 108.589 12.9524 108.283 12.5938C107.991 12.2351 107.632 11.9428 107.22 11.7435C106.809 11.5443 106.357 11.438 105.865 11.438C105.347 11.438 104.882 11.5443 104.471 11.7568C104.059 11.9694 103.713 12.2616 103.421 12.6336C103.129 13.0056 102.916 13.4041 102.757 13.8558C102.611 14.2942 102.531 14.7591 102.531 15.2374Z" fill="white"/>
<path d="M113.411 12.6468V20.1127H112.175V10.3618H113.211L119.163 17.9739V10.3751H120.398V20.0994H119.269L113.411 12.6468Z" fill="white"/>
</svg>
