<svg width="482" height="56" viewBox="0 0 482 56" fill="none" xmlns="http://www.w3.org/2000/svg">
<path d="M1 20.9003C41.5441 3.74207 114.581 -13.6236 132.143 20.9005C142.153 40.581 90.9244 59.4062 65.0696 45.1229C28.5299 24.9368 182.697 -2.31384 243.263 20.9003C303.829 44.1144 331.86 58.7486 369.4 49.1602C406.941 39.5717 347.877 14.5148 318.845 26.4508C289.814 38.3868 367.398 67.3277 414.449 49.1602C461.501 30.9926 437.975 25.4414 461 17.367" stroke="#2257C1" stroke-dasharray="8 8"/>
<path d="M472.19 22.5892L481.781 8.30233L456.332 10.0993L463.011 14.1023L477.907 10.3802L463.822 15.7669L461.741 23.7909L465.645 17.5663L472.19 22.5892Z" fill="#2257C1"/>
</svg>
